<svg width="46" height="46" viewBox="0 0 46 46" fill="none" xmlns="http://www.w3.org/2000/svg">
<path d="M22.3161 3.49622C22.5635 3.35511 22.7731 3.28516 22.9865 3.28516H23.001C23.2189 3.28839 23.436 3.364 23.6971 3.50956L33.6228 9.09143C34.5277 9.6478 35.1288 10.6303 35.1288 11.7487V16.6606L22.9188 9.78568C22.8183 9.73149 22.7117 9.70279 22.6112 9.70279C22.5344 9.70279 22.4614 9.71977 22.3979 9.75333C22.3352 9.78648 22.2816 9.83784 22.2418 9.90698C22.1957 9.98744 22.1679 10.0946 22.1679 10.2288L22.1675 18.0139L22.1679 18.0859L22.0944 18.0952L22.0886 18.096L22.0085 18.1061L21.928 18.1166L21.9176 18.1182L21.8391 18.13L21.7619 18.1417L21.7412 18.1453L21.6611 18.1591L21.5826 18.1728L21.5781 18.174L21.4963 18.1894L21.4162 18.206L21.4029 18.2084L21.3248 18.2254L21.246 18.244L21.2397 18.2452C20.8828 18.3285 20.5353 18.4377 20.1995 18.5699C20.131 18.5966 20.0659 18.6237 20.0044 18.6499C19.9401 18.677 19.8762 18.7057 19.8131 18.7349L19.811 18.7353L19.7388 18.7692L19.6665 18.8044L19.6558 18.8089L19.5918 18.8408L19.5271 18.8739L19.4984 18.8885L19.4358 18.9213L19.3743 18.9544L19.3531 18.9657C19.3262 18.9803 19.2959 18.9973 19.2639 19.0155L19.2456 19.0256L19.2282 19.0357L19.2083 19.047L19.1444 19.0838L19.0796 19.1226L19.0705 19.1279L19.0049 19.1683L18.9389 19.2091L18.9314 19.2148C18.7338 19.3393 18.5429 19.4736 18.3582 19.6163C18.3183 19.6474 18.2826 19.6753 18.2515 19.7004C18.2199 19.7255 18.1838 19.755 18.1465 19.7865L18.1452 19.7873L18.139 19.7926L18.0796 19.8423L18.0224 19.8925L18.0136 19.8998L17.9618 19.9458L17.9103 19.9919L17.8845 20.0158L17.8343 20.0619L17.7849 20.1084L17.7667 20.1258L17.7185 20.1723L17.6708 20.2196L17.6421 20.2479L17.6006 20.2899L17.5595 20.3324L17.5193 20.3744L17.4832 20.4129L17.447 20.4517L17.4001 20.503L17.3657 20.541L17.3325 20.5782L17.2972 20.6191L17.2582 20.6635L17.2204 20.708L17.193 20.742L17.1532 20.7897L17.115 20.8366L17.0926 20.8653C17.0037 20.9769 16.9174 21.0921 16.8348 21.2106L16.7862 21.2806L16.7389 21.3497L16.7252 21.3707L16.6679 21.4581L16.6293 21.5191L16.5874 21.5866L16.5803 21.598L16.5799 21.5992L16.5421 21.6618C16.5263 21.6875 16.5155 21.7063 16.5055 21.7236C16.5029 21.7282 16.5003 21.7326 16.4977 21.7371L16.4944 21.7431L16.4566 21.809L16.4338 21.8499L16.4106 21.8911L16.374 21.9594L16.3333 22.0367L16.2947 22.1123L16.2545 22.1927L16.2204 22.2643L16.1835 22.3436L16.1569 22.4026L16.1117 22.5045L16.081 22.5781L16.049 22.6553C16.0387 22.6809 16.0311 22.7004 16.0245 22.7173C16.021 22.7263 16.0177 22.7346 16.0146 22.7426L16.0104 22.754L16.01 22.7556L15.9863 22.8166C15.9685 22.8648 15.9535 22.906 15.9386 22.948L15.9282 22.9776L15.9033 23.0507L15.8788 23.1264L15.8547 23.2024L15.8386 23.2561L15.8224 23.3087L15.8066 23.3645L15.7991 23.3904L15.7771 23.4713L15.7584 23.5448L15.7331 23.6439L15.7173 23.713C15.7111 23.7393 15.7049 23.7664 15.6958 23.8101L15.6792 23.8877L15.6605 23.9844L15.6472 24.06L15.6306 24.1554L15.6181 24.2359L15.604 24.3321L15.5937 24.4101L15.5824 24.5051L15.5733 24.5884L15.5646 24.6847L15.558 24.7655L15.5521 24.8565L15.5513 24.867L15.5501 24.8808L15.5463 24.943L15.5426 25.0449L15.5418 25.0623L15.5397 25.123L15.538 25.2127L15.5372 25.3029L15.538 25.3959L15.5397 25.4897L15.5401 25.4925L15.5426 25.5831L15.5472 25.6765V25.6777L15.5476 25.6806L15.5526 25.7691L15.5592 25.8617L15.5671 25.9547L15.5758 26.042L15.5762 26.0457C15.5883 26.1658 15.6044 26.2867 15.6235 26.4088L15.6376 26.4969L15.6538 26.5846V26.5867L15.6547 26.5891L15.6551 26.5923L15.6709 26.6776L15.6887 26.7654L15.6891 26.7674C15.707 26.8511 15.7256 26.9344 15.7464 27.0169L15.7589 27.0654L15.7717 27.1143V27.1155L15.7726 27.1184L15.7962 27.2053L15.8203 27.2906L15.8207 27.2918C15.8304 27.3254 15.841 27.359 15.8511 27.3921C15.8531 27.3989 15.8552 27.4056 15.8572 27.4123L15.8643 27.4358L15.8718 27.4596L15.8726 27.4612L15.873 27.4629L15.9008 27.5482L15.9286 27.6303L15.9299 27.6327L15.9589 27.7156L15.9888 27.7964L15.9896 27.7973L15.9905 27.8001L16.0208 27.8797L16.0519 27.9586L16.0569 27.9699L16.0884 28.0467L16.1221 28.1248L16.1237 28.1288L16.1544 28.1971L10.867 31.1706V11.7487C10.867 10.5952 11.5054 9.58715 12.4568 9.04089L12.5116 9.01056L22.3161 3.49622Z" fill="#FFBA00"/>
<path d="M23.8349 12.113L41.1024 21.824C42.1277 22.4006 42.7046 23.4438 42.7146 24.5193V35.6086C42.7171 35.8945 42.6723 36.1092 42.5602 36.292C42.4485 36.4743 42.2725 36.6195 42.0123 36.7671L32.087 42.3493C31.1397 42.8345 29.9663 42.8507 28.9713 42.2907L24.7315 39.9067L24.6041 39.8348L24.7315 39.7636L36.8219 32.9728C36.9203 32.9149 36.9984 32.8393 37.049 32.7544C37.0872 32.6893 37.1096 32.6194 37.1108 32.5494C37.1125 32.4799 37.0942 32.4087 37.0527 32.3412C37.0037 32.2611 36.9228 32.1847 36.8033 32.1176L29.882 28.225L29.8177 28.1891L29.8463 28.1223L29.8484 28.1167L29.8799 28.0443L29.9102 27.9711L29.943 27.8894L29.9708 27.8183L29.9779 27.7993L30.0061 27.7245L30.0331 27.6513L30.0343 27.6472L30.0609 27.5704L30.0866 27.4948L30.0912 27.4823L30.1153 27.4075L30.1385 27.3323L30.1402 27.3266C30.244 26.9837 30.3212 26.6356 30.3718 26.2862C30.3818 26.2151 30.3905 26.1472 30.398 26.0821C30.4058 26.0137 30.4125 25.9458 30.4187 25.8779V25.8758L30.4249 25.7982L30.4299 25.7194L30.4303 25.708L30.4345 25.6381L30.4378 25.5669L30.439 25.5358L30.4411 25.4663L30.4428 25.3745C30.4432 25.3445 30.4436 25.3106 30.4432 25.2742V25.2119L30.442 25.1395L30.4403 25.0656L30.4399 25.055L30.4374 24.9798L30.4337 24.9034L30.4328 24.8941C30.42 24.6657 30.3963 24.4368 30.3618 24.21C30.3548 24.1606 30.3473 24.1166 30.3407 24.0778C30.334 24.0389 30.3257 23.9937 30.3166 23.9464V23.9447L30.3149 23.9366L30.3 23.8622L30.2842 23.7887L30.2821 23.7777L30.2672 23.7106L30.2518 23.6439L30.2435 23.6103L30.2282 23.5457L30.2112 23.4802L30.2049 23.4559L30.1697 23.3281L30.1584 23.2901L30.1418 23.2335L30.1078 23.1235L30.0916 23.0738L30.075 23.0233L30.053 22.9586L30.0194 22.8635L30.0007 22.8134L29.9808 22.7584L29.96 22.7042L29.9443 22.6638L29.9214 22.6068L29.8986 22.551L29.8845 22.5178C29.8297 22.3872 29.7703 22.257 29.7064 22.1276L29.6309 21.9772L29.63 21.9768L29.6296 21.976L29.6188 21.9554L29.5943 21.9089L29.5694 21.8632L29.5346 21.7997L29.496 21.731L29.4889 21.7193L29.4885 21.7185L29.4515 21.655C29.4324 21.6222 29.4196 21.6012 29.4067 21.5802L29.403 21.5741L29.3635 21.509L29.3391 21.4698L29.3129 21.4294L29.271 21.3643L29.2228 21.2911L29.1747 21.2211L29.1228 21.1471L29.0771 21.0824L29.0248 21.0117L28.9854 20.9599L28.9754 20.947L28.9173 20.871L28.8675 20.8079L28.8148 20.7424C28.7874 20.7096 28.7708 20.6894 28.7542 20.67L28.7463 20.6603L28.7455 20.6599L28.7027 20.609C28.6691 20.5697 28.6396 20.5366 28.6097 20.503L28.5886 20.4796L28.5363 20.4217L28.4815 20.3631L28.4254 20.3049L28.347 20.2244L28.3051 20.1832L28.2855 20.1642L28.2254 20.1052L28.1693 20.0526L28.0938 19.9814L28.0402 19.9337C28.0199 19.9151 27.9987 19.8965 27.9647 19.867L27.9041 19.814L27.8273 19.7506L27.7667 19.7008L27.6903 19.6394L27.6251 19.5888L27.5463 19.5286L27.4823 19.4809L27.4035 19.4238L27.3337 19.3745L27.2528 19.3191L27.1839 19.273L27.1171 19.2298L27.1058 19.2225L27.0971 19.2164L27.0859 19.2091L27.032 19.1752L26.9435 19.1202L26.8755 19.0789L26.7962 19.0324L26.7169 18.9868L26.6339 18.9411L26.5492 18.8954L26.5467 18.895L26.4649 18.8513L26.3799 18.8084L26.3786 18.8076L26.3757 18.8068L26.2943 18.7668L26.2088 18.726L26.1225 18.6863L26.0403 18.6495L26.0366 18.6479C25.9241 18.599 25.8087 18.5517 25.6904 18.5068L25.6053 18.4749L25.5189 18.4441L25.5173 18.4437L25.5144 18.4425L25.5119 18.4413L25.4276 18.4122L25.3409 18.3835L25.34 18.3831L25.3384 18.3827C25.2554 18.356 25.1715 18.3305 25.0881 18.3063L25.0391 18.2925L24.9889 18.2792L24.988 18.2784L24.9856 18.2776L24.8963 18.2541L24.8079 18.2319L24.8066 18.2315C24.7647 18.2214 24.7228 18.2112 24.6809 18.2019L24.6568 18.1967L24.6319 18.191L24.6306 18.1906L24.6282 18.1902L24.5389 18.1712L24.4517 18.1534L24.4493 18.153L24.3613 18.1364L24.2737 18.1211L24.2699 18.1207L24.1844 18.1061L24.0981 18.0936L24.0856 18.0916L24.0018 18.0802L23.9159 18.0693L23.9109 18.0685L23.8349 18.0604V12.113Z" fill="#FFBA00"/>
<path d="M9.26306 19.3697L9.25559 33.1074C9.25767 33.2194 9.28589 33.3237 9.33612 33.4082C9.37514 33.4733 9.42619 33.5267 9.48721 33.5627C9.54865 33.5991 9.62129 33.6189 9.70223 33.6181C9.79729 33.6165 9.90604 33.5861 10.0252 33.5194L17.0108 29.5909L17.056 29.6483L17.0598 29.6523L17.1083 29.715L17.1581 29.7777L17.1644 29.7858L17.2142 29.846L17.2636 29.9051L17.2769 29.9212L17.3292 29.9819L17.3806 30.0409L17.3839 30.0446L17.4387 30.1052L17.4931 30.165L17.5022 30.1748L17.5566 30.2322L17.6122 30.2896L17.6164 30.294C17.8692 30.5532 18.1398 30.7922 18.4254 31.0093C18.4835 31.0534 18.54 31.095 18.5939 31.1338C18.6504 31.1743 18.7077 31.2143 18.7654 31.2531L18.7666 31.2539L18.833 31.298L18.9003 31.3417L18.9098 31.3481L18.97 31.3865L19.0319 31.4246L19.0593 31.4415L19.1195 31.4779L19.1796 31.5131L19.2004 31.5256C19.2265 31.5406 19.2568 31.558 19.2896 31.5758L19.3071 31.5859L19.3249 31.5956L19.3448 31.6065L19.4096 31.6425L19.4768 31.6777L19.486 31.6829L19.5545 31.7181L19.6238 31.7529L19.6325 31.7569C19.8421 31.8608 20.0571 31.9555 20.2763 32.0391C20.3241 32.0577 20.3664 32.0739 20.4046 32.0873C20.4424 32.1014 20.4864 32.1168 20.5333 32.133L20.5345 32.1338L20.5428 32.1362L20.6163 32.1609L20.6898 32.1851L20.7005 32.1883L20.7674 32.209L20.8342 32.2292L20.8682 32.2397L20.9338 32.2583L21.0002 32.2769L21.0251 32.2834L21.0903 32.3008L21.1563 32.3177L21.1957 32.3274L21.2543 32.3416L21.3116 32.3553L21.3693 32.3679L21.4747 32.3905L21.5436 32.4043L21.5947 32.414L21.6445 32.4237L21.6984 32.433L21.7574 32.4435L21.8155 32.4532L21.8599 32.4597L21.9222 32.469L21.9832 32.4779L22.0193 32.4827C22.1629 32.5017 22.3086 32.5167 22.4551 32.5272L22.5415 32.5337L22.627 32.5385L22.6278 32.5381H22.6291L22.6523 32.5397L22.7059 32.5421L22.759 32.5442L22.8325 32.5466L22.913 32.5482H22.9283L23.0031 32.549C23.0413 32.549 23.0666 32.549 23.0923 32.5486L23.099 32.5482L23.1766 32.5474L23.2725 32.545L23.3517 32.5417L23.4406 32.5377L23.5269 32.532L23.6191 32.5256L23.6992 32.5191L23.788 32.5106L23.854 32.5033L23.8706 32.5017L23.9669 32.4904L24.1329 32.4681C24.1684 32.4631 24.1927 32.4588 24.2144 32.4553C24.2189 32.4546 24.2233 32.4539 24.2276 32.4532L24.24 32.4508L24.2413 32.4504L24.3073 32.4398C24.3592 32.4314 24.4036 32.4233 24.448 32.4144L24.4791 32.4087L24.5568 32.3933L24.6365 32.3764L24.7162 32.3582L24.7722 32.3452L24.827 32.3323L24.8847 32.3177L24.9113 32.3109L24.9943 32.289L25.069 32.2688L25.1699 32.2401L25.2388 32.2191C25.2657 32.2106 25.2927 32.2029 25.3363 32.1888L25.4135 32.1633L25.5086 32.1309L25.5825 32.1051L25.6754 32.0711L25.7531 32.0412L25.8465 32.0048L25.9208 31.9745L26.0104 31.9369L26.0893 31.9025L26.1785 31.862L26.2545 31.8269L26.3263 31.7921L26.3388 31.7864L26.3479 31.7816L26.3603 31.7759L26.4176 31.748L26.511 31.7003L26.5264 31.6922L26.5812 31.6639L26.6621 31.6207L26.7426 31.5758L26.8248 31.5289L26.9074 31.4799L26.9091 31.4787L26.9888 31.431L27.0697 31.3805L27.071 31.3801L27.0731 31.3781L27.149 31.3299L27.2283 31.2778L27.3068 31.2248L27.3806 31.1739L27.3835 31.1714C27.4836 31.1011 27.5836 31.0275 27.6824 30.9503L27.7538 30.8941L27.824 30.8367L27.8252 30.8354L27.8277 30.8338L27.8298 30.8318L27.8978 30.7756L27.9672 30.7166L27.968 30.7162L27.9684 30.7149C28.0344 30.6579 28.0988 30.6009 28.1618 30.5423L28.1988 30.5075L28.2357 30.4719L28.2366 30.4715L28.2386 30.4699L28.3042 30.406L28.3677 30.343L28.369 30.3421C28.3993 30.3114 28.4288 30.2815 28.4578 30.2512L28.4752 30.2334L28.4923 30.2152L28.4935 30.2136L28.4948 30.2124L28.557 30.1464L28.616 30.0818L28.6176 30.0797L28.6766 30.0138L28.7338 29.9479L28.7343 29.9471L28.7363 29.9447L28.7915 29.88L28.8459 29.8137L28.8538 29.804L28.9061 29.7389L28.9588 29.6718L28.9617 29.6681L29.007 29.6083L29.073 29.6451L34.2944 32.5814L34.1678 32.6533L17.0274 42.2927C16.0021 42.8693 14.7859 42.8345 13.8245 42.3053L13.7706 42.2745L3.96564 36.7606C3.71036 36.6191 3.54183 36.4743 3.43557 36.2883C3.32972 36.1031 3.28821 35.882 3.28696 35.5888L3.28613 24.4247C3.32889 23.3835 3.90172 22.3852 4.89628 21.8256L9.26306 19.3697Z" fill="#FFBA00"/>
<path d="M22.9999 30.9808C19.7576 30.9808 17.1281 28.4058 17.1281 25.2308C17.1281 22.0559 19.7576 19.4808 22.9999 19.4808C26.2432 19.4808 28.8728 22.0559 28.8728 25.2308C28.8728 28.4058 26.2432 30.9808 22.9999 30.9808Z" fill="#FFBA00"/>
</svg>
